PathFileType	4	(X/Y/Z)	./resultDataOpenSim/trcMotMarkerGrf/sub06/qtm-02-08.trc
DataRate	CameraRate	NumFrames	NumMarkers	Units	OrigDataRate	OrigDataStartFrame	OrigNumFrames
250.000000	250.000000	14	24	m	250.000000	306	489
Frame#	Time	L.Toe.Tip			R.Toe.Tip			L.Ankle.Lat			R.Ankle.Lat			L.Ankle.Med			R.Ankle.Med			L.Heel			R.Heel			L.Knee.Lat			R.Knee.Lat			L.Knee.Med			R.Knee.Med			L.Thigh.Upper			R.Thigh.Upper			L.ASIS			R.ASIS			V.Sacral			L.Acromium			R.Acromium			C7			L.Elbow			R.Elbow			L.Wrist.Lat			R.Wrist.Lat
		X1	Y1	Z1	X2	Y2	Z2	X3	Y3	Z3	X4	Y4	Z4	X5	Y5	Z5	X6	Y6	Z6	X7	Y7	Z7	X8	Y8	Z8	X9	Y9	Z9	X10	Y10	Z10	X11	Y11	Z11	X12	Y12	Z12	X13	Y13	Z13	X14	Y14	Z14	X15	Y15	Z15	X16	Y16	Z16	X17	Y17	Z17	X18	Y18	Z18	X19	Y19	Z19	X20	Y20	Z20	X21	Y21	Z21	X22	Y22	Z22	X23	Y23	Z23	X24	Y24	Z24

306	1.22	0.31261978	0.086141532	-0.016957041	0.87858841	0.035727212	0.13276099	0.31822209	0.21290277	-0.054924751	0.74263078	0.059825785	0.16082402	0.33703007	0.2233167	0.026906483	0.75906372	0.081156147	0.073310491	0.27221922	0.27393348	-0.010272032	0.68562272	0.038299578	0.10433598	0.6562184	0.37694505	-0.085944067	0.8120714	0.44194096	0.18895972	0.66188368	0.3666056	0.03476748	0.76859345	0.43015585	0.06903745	0.61881644	0.7700046	-0.081683952	0.68560035	0.79643195	0.25713752	0.70312712	0.8229806	-0.055284407	0.75583932	0.84604302	0.18342975	0.54564796	0.90771293	0.10424703	0.66128804	1.3208958	-0.10034258	0.68100331	1.2926615	0.26235693	0.59258623	1.3479603	0.085658635	0.66386272	0.99370438	-0.16345974	0.57728293	0.9965802	0.32282019	0.86575861	0.85650505	-0.12059104	0.68248543	0.78312364	0.37737934
307	1.224	0.32738314	0.088184607	-0.017298597	0.87850961	0.035721684	0.13285613	0.33154222	0.21496461	-0.055153235	0.74254493	0.059753451	0.16094097	0.35019301	0.22550614	0.02664529	0.75897779	0.081293762	0.07350751	0.28480156	0.27560894	-0.010652859	0.68556629	0.038376361	0.10440493	0.66874913	0.37934309	-0.086252206	0.81373851	0.4419011	0.18948581	0.67457573	0.36884599	0.034593588	0.77030906	0.43058977	0.069356025	0.62520679	0.77223572	-0.081394898	0.69043465	0.79744415	0.25771918	0.70922519	0.82495154	-0.055363088	0.7613333	0.84739131	0.18433877	0.5518336	0.90952802	0.1045129	0.66673554	1.3228944	-0.10027708	0.68728219	1.2947658	0.26233964	0.59858998	1.3497885	0.085836173	0.66804143	0.99587062	-0.16317434	0.58568851	0.99776686	0.32365946	0.86830132	0.85596455	-0.12182309	0.69500912	0.78583535	0.37677083
308	1.228	0.34233345	0.090031143	-0.017689382	0.87843777	0.035718141	0.13293998	0.34493228	0.21683679	-0.055396988	0.74245012	0.059704777	0.16105399	0.36345306	0.22747298	0.026365082	0.75889396	0.081430582	0.073708232	0.29744369	0.27701034	-0.010903245	0.68550977	0.038462104	0.10450182	0.68124998	0.38189348	-0.086571943	0.81533017	0.44185221	0.18999851	0.68726287	0.37118621	0.034437929	0.77197567	0.43106428	0.069621065	0.63165968	0.7745169	-0.081242232	0.69515971	0.79842768	0.2582417	0.71550929	0.82698672	-0.055276645	0.76680425	0.8487579	0.1852852	0.55783731	0.91130462	0.10480109	0.67217613	1.3249079	-0.10020374	0.69353907	1.2968955	0.26231635	0.60454841	1.3516458	0.086046974	0.67208295	0.9980683	-0.16310476	0.59410107	0.99900003	0.32448796	0.8707487	0.85549443	-0.12309924	0.70742465	0.78864478	0.376045
309	1.232	0.35744782	0.091689651	-0.018152623	0.87837827	0.035716122	0.13301176	0.35838123	0.21851381	-0.055649972	0.74236077	0.059683645	0.16115911	0.37680857	0.22921334	0.026077724	0.75882577	0.081568312	0.073899649	0.31011903	0.27809953	-0.010943223	0.68545878	0.038553745	0.10461822	0.69371052	0.38457515	-0.086882769	0.81680446	0.44181231	0.19045263	0.69996	0.37363714	0.034295067	0.77349984	0.43155863	0.069881867	0.63820828	0.7768351	-0.081247864	0.69979958	0.79938685	0.25870023	0.72190082	0.82906575	-0.055086406	0.77226501	0.85015808	0.1862469	0.56366814	0.91306301	0.1051303	0.67762101	1.3269264	-0.10011829	0.69978327	1.2990459	0.26229113	0.61049103	1.3535087	0.086255698	0.67600965	1.0002952	-0.16316781	0.60254327	1.0002772	0.32529809	0.87311038	0.85509286	-0.12442058	0.71977511	0.79157098	0.3752313
310	1.236	0.37270358	0.093161017	-0.018705599	0.8783321	0.035716117	0.13306984	0.37189187	0.21998637	-0.055909381	0.74228432	0.059691951	0.16125888	0.39025105	0.23072431	0.025787786	0.75877089	0.081717174	0.074080908	0.32281639	0.27888739	-0.010836792	0.68541926	0.038647607	0.10474047	0.70614341	0.38735701	-0.087156455	0.8181399	0.44180382	0.19082423	0.71265355	0.37620602	0.034175042	0.77479101	0.43205018	0.070177913	0.64483025	0.77917229	-0.081328136	0.7044027	0.80033707	0.25912251	0.72821377	0.83112539	-0.054889198	0.7777157	0.85160345	0.1872027	0.56938213	0.91482755	0.10548371	0.68307559	1.3289439	-0.10001991	0.70601672	1.301212	0.26226363	0.61643101	1.3553668	0.086451164	0.67988322	1.0025625	-0.16318911	0.61100695	1.0015923	0.32608656	0.87539687	0.85475906	-0.125787	0.73211802	0.79463756	0.37437323
311	1.24	0.38809124	0.0944466	-0.019355187	0.87829287	0.035719501	0.13311145	0.38546974	0.2212455	-0.056177885	0.74219898	0.059732045	0.16136728	0.40376827	0.23200622	0.025490049	0.75872057	0.081887328	0.074253527	0.33555096	0.27941761	-0.010755589	0.68539022	0.03874318	0.10486015	0.7185748	0.39022014	-0.087390339	0.81935865	0.44182462	0.19113455	0.72530936	0.37888367	0.034090809	0.77594406	0.43250819	0.070478979	0.65146696	0.78150915	-0.081347167	0.70898519	0.80128553	0.25951714	0.73437429	0.83314162	-0.054699587	0.78314524	0.85309769	0.18813897	0.57498922	0.91661649	0.10584137	0.68853944	1.3309554	-0.099909949	0.7122376	1.303386	0.26222963	0.62237478	1.3572095	0.086637269	0.68375552	1.0048714	-0.16305606	0.61946079	1.0029367	0.32685795	0.87761535	0.85449428	-0.12719721	0.74447763	0.79785096	0.37349501
312	1.244	0.4036169	0.095553844	-0.020103226	0.87825194	0.035727613	0.133135	0.39911148	0.22229359	-0.056467922	0.74206755	0.059806894	0.16150233	0.41735223	0.23306267	0.025176561	0.75867151	0.082079692	0.074414045	0.34834258	0.2797119	-0.010812377	0.68536154	0.038843544	0.10498139	0.73098575	0.39315847	-0.087573126	0.82051578	0.44185958	0.19141175	0.73788263	0.38164772	0.0340534	0.77720564	0.43290403	0.070705383	0.65806205	0.78382703	-0.081199414	0.71357644	0.80224434	0.25989209	0.74051487	0.83515256	-0.054435892	0.78854614	0.8546351	0.18904823	0.58046986	0.91843362	0.10619101	0.69401036	1.3329514	-0.09978701	0.71844661	1.3055586	0.26218588	0.62832368	1.3590238	0.086823209	0.68763463	1.007203	-0.16278516	0.62786519	1.0043007	0.32762399	0.87976708	0.85429138	-0.12864815	0.756836	0.80119715	0.37259216
313	1.248	0.41929246	0.096488915	-0.02095202	0.87820554	0.035740532	0.13314219	0.41280521	0.2231518	-0.056801571	0.74188667	0.059914496	0.1616655	0.43100094	0.23389546	0.024841129	0.75862638	0.082285474	0.074558784	0.36118904	0.27976664	-0.010994989	0.68531629	0.038954201	0.10512315	0.74332427	0.39616658	-0.087679823	0.82165563	0.44190282	0.19167261	0.75034043	0.38448386	0.034069325	0.77871616	0.43323214	0.070818934	0.66461099	0.78611107	-0.08088261	0.71823854	0.80322891	0.26025568	0.74686059	0.8372209	-0.053994848	0.79392569	0.85620335	0.18992459	0.5858778	0.92025583	0.10650712	0.6994873	1.3349186	-0.099646843	0.72464913	1.3077219	0.26213289	0.63427303	1.3608014	0.087015423	0.69150135	1.009531	-0.16245322	0.63619733	1.0056779	0.32839465	0.8818529	0.8541327	-0.13013164	0.76916484	0.80465578	0.37165311
314	1.252	0.43512691	0.097253872	-0.021904635	0.87815519	0.035756587	0.13313818	0.42654027	0.22384931	-0.057203852	0.74170886	0.060039446	0.1618325	0.44470811	0.23450151	0.024487995	0.75858491	0.082495706	0.074692727	0.37406568	0.27957681	-0.011222504	0.68523711	0.039080744	0.10530913	0.75557234	0.39923967	-0.087713727	0.82278231	0.44195699	0.19192626	0.76265859	0.38740282	0.034144196	0.78035225	0.43351747	0.070867056	0.67119512	0.78835798	-0.08054073	0.72304552	0.80424723	0.26060133	0.75349483	0.83936859	-0.053366765	0.79930148	0.85778926	0.19076411	0.5913483	0.92203394	0.1067494	0.70497378	1.3368477	-0.09948809	0.73085132	1.3098692	0.26207392	0.64021358	1.3625405	0.087213171	0.69533575	1.0118393	-0.1621205	0.64446571	1.0070656	0.3291706	0.88387856	0.85400533	-0.13163554	0.78144694	0.80821337	0.37067503
315	1.256	0.45112642	0.097853972	-0.022957732	0.87810282	0.035773953	0.13313014	0.44032034	0.22440047	-0.057674953	0.74159871	0.060153135	0.16197179	0.45844566	0.23487921	0.024148468	0.75854032	0.08270876	0.074828217	0.38695084	0.27913658	-0.011419096	0.68512037	0.039225376	0.10553998	0.76775147	0.40237326	-0.087704013	0.82387432	0.4420224	0.19217263	0.77478546	0.39043295	0.034294008	0.78183551	0.43378466	0.070942437	0.67793885	0.79057643	-0.080389741	0.72803605	0.8052954	0.2609141	0.76024709	0.84154956	-0.052661381	0.80469086	0.85938242	0.19156738	0.59698329	0.92372164	0.10689428	0.71048087	1.3387385	-0.099318419	0.73705522	1.3119946	0.26201306	0.64613785	1.364243	0.08741077	0.69912643	1.0141245	-0.16181153	0.65269472	1.0084611	0.32994638	0.88585077	0.85391148	-0.1331528	0.79367187	0.81186673	0.36966027
316	1.26	0.46729698	0.098299192	-0.024095839	0.87804792	0.03579232	0.13312523	0.45416336	0.22479224	-0.058167167	0.74157596	0.060227224	0.16207005	0.47217191	0.23503462	0.023868366	0.75848676	0.082925422	0.074972644	0.39984586	0.27843355	-0.011555087	0.68498796	0.039384731	0.10577499	0.77988161	0.40555594	-0.087665773	0.82491635	0.44209573	0.19240859	0.78665307	0.39358985	0.034539685	0.78303065	0.43400633	0.07109935	0.68490675	0.79277592	-0.080546267	0.73313264	0.80635194	0.26118891	0.7668535	0.84369743	-0.051971657	0.81010448	0.86097408	0.19233772	0.6027804	0.92530537	0.10695236	0.71602526	1.3405936	-0.099156018	0.74325739	1.314092	0.26195328	0.65204455	1.3659079	0.087603393	0.70287027	1.0163882	-0.16152863	0.66089795	1.0098575	0.3307154	0.88777231	0.85386034	-0.13468678	0.80583142	0.81562037	0.368611
317	1.264	0.48364052	0.098599446	-0.025298755	0.87798891	0.035811774	0.13312889	0.46808212	0.22499527	-0.058619815	0.74161101	0.060251658	0.16213875	0.48588317	0.23498056	0.023652309	0.75842533	0.083142362	0.075123587	0.41277078	0.2774576	-0.011649962	0.68487518	0.03955151	0.10596026	0.79197309	0.40876928	-0.087590903	0.82590982	0.44217181	0.1926363	0.79826746	0.39684618	0.034874354	0.78400349	0.4341295	0.071309987	0.69204507	0.79496074	-0.080921793	0.73814696	0.80738242	0.26143566	0.77317801	0.84578294	-0.051267913	0.815545	0.86255508	0.193077	0.60867781	0.92680331	0.10695222	0.72161953	1.3424099	-0.099022491	0.74945181	1.3161543	0.26189512	0.65793618	1.3675272	0.087790818	0.70656839	1.0186271	-0.16127146	0.66906373	1.0112446	0.33146959	0.88964563	0.85385376	-0.13624454	0.81792366	0.81947433	0.36753045
318	1.268	0.50014756	0.098763157	-0.026554786	0.87792618	0.03583062	0.13314342	0.48207067	0.22498785	-0.059014286	0.74165424	0.060242937	0.16220604	0.49964682	0.23473768	0.023438957	0.75836218	0.083354512	0.075276599	0.42575365	0.27620529	-0.011748642	0.68480123	0.039719098	0.10607786	0.80403817	0.41199434	-0.08746465	0.82686229	0.4422433	0.19285833	0.80974234	0.4001397	0.035248778	0.78467416	0.43418549	0.071499951	0.69923206	0.79713787	-0.081280918	0.74296266	0.80836575	0.26166193	0.77928403	0.84781896	-0.05049061	0.82100877	0.86411501	0.193784	0.61461077	0.92824431	0.10692071	0.72725485	1.3441782	-0.098922523	0.75563467	1.3181747	0.26183735	0.66381489	1.3690905	0.087976161	0.71022146	1.0208313	-0.16104511	0.67716113	1.0126087	0.33219887	0.89148042	0.85387794	-0.13782382	0.82995429	0.82340743	0.36642445
319	1.272	0.51679592	0.098791326	-0.027859366	0.87786399	0.03584617	0.13316802	0.49611366	0.22476628	-0.05937532	0.74165424	0.060236255	0.16230329	0.51353554	0.23432471	0.023165368	0.75830603	0.083559296	0.07543082	0.43881683	0.27467237	-0.011884303	0.68475398	0.039886964	0.10616015	0.8160755	0.41521951	-0.087280003	0.82777784	0.44230231	0.19307209	0.82119631	0.40342545	0.035605185	0.78481036	0.43429798	0.071611553	0.70637896	0.79932088	-0.081418043	0.74767852	0.80931028	0.2618561	0.78538444	0.84983509	-0.049673541	0.82648916	0.86564012	0.1944562	0.62052701	0.92965364	0.10687526	0.7328962	1.3458871	-0.098828361	0.76180783	1.3201491	0.26177966	0.66968211	1.3705945	0.088160275	0.71383208	1.0229878	-0.16085394	0.68516902	1.0139361	0.33289573	0.893295	0.85390648	-0.13940596	0.84193011	0.82738173	0.36529878
